# xmcd
# Copyright (C) 1995-1998 Ti Kan
#
# Track frame offsets:
#       150
#       13884
#       27466
#       42942
#       56592
#       68781
#       80940
#       94688
#       108477
#       121418
#       134610
#       150212
#       163974
#       176635
#       189993
#       202640
#       215887
#       229022
#       243105
#       257829
#       270574
#       283891
#       297751
#       310510
#       323812
#
# Disc length: 4484 seconds
#
# Revision: 1
# Processed by: cddbd v1.5.2PL0 Copyright (c) Steve Scherf et al.
# Submitted via: CD-Transfer v1.0
#
DISCID=6b118219
DTITLE=Blues - 
DYEAR=1900
DGENRE=
TTITLE0=Devil Got My Woman
TTITLE1=C. C. Rider
TTITLE2=Baby Please Don't Go
TTITLE3=Dirty Mother For You (Don't You Know)
TTITLE4=Billie's Blues
TTITLE5=Cross Road Blues
TTITLE6=Good Mornin' Little School Girl
TTITLE7=Shake 'em On Down
TTITLE8=Roll 'em Pete
TTITLE9=Catfish Blues
TTITLE10=Going To Chicago Blues
TTITLE11=Key To The Highway
TTITLE12=Me And My Chauffeur Blues
TTITLE13=Worried Life Blues
TTITLE14=Cross Cut Saw Blues
TTITLE15=Evil Gal Blues
TTITLE16=Strange Things Happening Everyday
TTITLE17=Honeydripper Pt.1
TTITLE18=Drifting Blues
TTITLE19=Let The Good Times Roll
TTITLE20=That's All Right Mama
TTITLE21=Call It Stormy Monday
TTITLE22=Good Rockin' Tonight
TTITLE23=Ain't Nobody's Business, Pt. 1
TTITLE24=Double Crossing Blues
EXTD=
EXTT0=
EXTT1=
EXTT2=
EXTT3=
EXTT4=
EXTT5=
EXTT6=
EXTT7=
EXTT8=
EXTT9=
EXTT10=
EXTT11=
EXTT12=
EXTT13=
EXTT14=
EXTT15=
EXTT16=
EXTT17=
EXTT18=
EXTT19=
EXTT20=
EXTT21=
EXTT22=
EXTT23=
EXTT24=
PLAYORDER=
